<?xml version="1.0" standalone="no"?>
<!DOCTYPE svg PUBLIC "-//W3C//DTD SVG 20010904//EN"
 "http://www.w3.org/TR/2001/REC-SVG-20010904/DTD/svg10.dtd">
<svg version="1.0" xmlns="http://www.w3.org/2000/svg"
 width="600.000000pt" height="600.000000pt" viewBox="0 0 600.000000 600.000000"
 preserveAspectRatio="xMidYMid meet">
<metadata>
Created by potrace 1.11, written by Peter Selinger 2001-2013
</metadata>
<g transform="translate(0.000000,600.000000) scale(0.100000,-0.100000)"
fill="#000000" stroke="none">
<path d="M2468 4755 c-2 -1 -41 -5 -88 -9 -47 -4 -99 -8 -115 -11 -17 -2 -50
-6 -75 -9 -44 -5 -207 -32 -245 -41 -133 -29 -151 -32 -163 -22 -27 21 -518 8
-637 -17 -38 -8 -90 -17 -115 -21 -65 -9 -93 -18 -200 -64 -52 -23 -108 -54
-125 -70 -40 -38 -110 -81 -132 -81 -49 0 -142 -52 -213 -120 -116 -109 -186
-179 -206 -206 -49 -64 -85 -154 -94 -236 -5 -44 -21 -110 -36 -146 -25 -64
-26 -72 -21 -202 5 -141 8 -157 32 -230 8 -25 29 -90 46 -145 35 -109 54 -151
120 -265 61 -104 102 -155 230 -278 57 -54 71 -59 188 -61 26 -1 87 -59 113
-109 18 -34 73 -65 133 -76 17 -3 57 -15 90 -26 33 -11 78 -22 100 -24 22 -2
51 -6 65 -10 14 -3 45 -8 69 -10 28 -4 66 -21 110 -49 36 -24 93 -61 125 -82
71 -45 363 -191 461 -230 39 -15 93 -37 120 -48 55 -22 79 -30 270 -88 120
-37 260 -71 395 -98 30 -6 66 -14 80 -17 64 -13 182 -30 270 -39 36 -4 76 -9
90 -11 78 -12 230 -19 420 -19 199 0 454 10 483 20 12 4 61 11 142 21 22 3 72
11 110 19 39 8 82 16 96 19 15 2 78 18 140 35 560 149 970 424 1160 775 40 75
83 190 93 248 3 18 8 44 11 58 7 33 7 214 0 265 -26 189 -119 399 -260 586
-73 98 -239 266 -350 354 -345 276 -807 497 -1315 628 -129 33 -294 70 -370
82 -19 3 -46 7 -60 10 -47 8 -137 19 -254 31 -37 3 -87 8 -110 11 -45 5 -573
13 -578 8z m-1884 -464 c34 -13 29 -48 -12 -78 -44 -33 -56 -47 -77 -90 -13
-27 -22 -33 -49 -33 -36 0 -50 11 -59 49 -5 19 3 32 39 65 47 42 122 97 133
95 3 0 15 -4 25 -8z m-260 -277 c30 -30 12 -64 -35 -64 -34 0 -44 25 -24 56
18 28 37 30 59 8z"/>
<path d="M665 4617 c-71 -30 -157 -69 -190 -87 -97 -55 -97 -69 4 -65 76 4
113 19 169 69 43 37 163 106 186 106 9 0 16 7 16 15 0 27 -51 16 -185 -38z"/>
<path d="M272 4399 c-38 -29 -52 -47 -52 -64 0 -49 83 -21 119 40 25 44 25 42
3 54 -14 7 -29 1 -70 -30z"/>
<path d="M49 2913 c-3 -43 23 -109 63 -159 13 -16 34 -51 48 -78 23 -44 139
-176 155 -176 4 0 31 -22 60 -49 78 -71 155 -111 217 -114 52 -2 78 16 43 29
-10 4 -35 24 -57 46 -29 28 -53 41 -91 50 -41 8 -62 21 -102 60 -27 27 -65 64
-83 81 -49 47 -148 183 -190 259 -36 66 -61 86 -63 51z"/>
</g>
</svg>
